<?xml version="1.0" standalone="no"?>
<!DOCTYPE svg PUBLIC "-//W3C//DTD SVG 20010904//EN"
 "http://www.w3.org/TR/2001/REC-SVG-20010904/DTD/svg10.dtd">
<svg version="1.0" xmlns="http://www.w3.org/2000/svg"
 width="70.000000pt" height="70.000000pt" viewBox="0 0 70.000000 70.000000"
 preserveAspectRatio="xMidYMid meet">

<g transform="translate(0.000000,70.000000) scale(0.100000,-0.100000)"
fill="#000000" stroke="none">
<path d="M0 410 l0 -290 42 6 c22 4 49 15 60 26 10 10 26 18 36 18 24 0 72 23
72 34 0 25 -36 85 -56 95 -13 5 -33 29 -45 53 -17 34 -20 53 -16 99 3 32 12
72 21 90 9 18 16 37 16 44 0 15 68 79 105 98 29 16 24 16 -102 17 l-133 0 0
-290z"/>
<path d="M481 671 c24 -17 54 -42 65 -58 27 -36 52 -137 58 -235 5 -74 4 -80
-23 -120 -16 -24 -27 -46 -25 -50 3 -4 29 -15 59 -24 31 -9 61 -25 70 -37 14
-19 15 7 15 266 l0 287 -132 0 -131 0 44 -29z"/>
<path d="M262 665 c-78 -34 -102 -68 -140 -193 -15 -51 -15 -54 7 -98 12 -26
31 -48 42 -51 21 -6 69 -96 69 -131 0 -15 -10 -24 -35 -32 -42 -14 -53 -28
-28 -37 10 -4 34 -16 53 -29 l36 -22 27 22 c70 55 86 66 104 66 11 0 30 18 46
45 27 42 30 44 49 31 16 -12 25 -12 39 -3 23 14 25 45 4 53 -12 5 -13 10 -4
20 8 10 16 11 29 4 24 -13 36 16 13 29 -14 8 -15 12 -4 25 17 20 7 104 -19
163 -10 23 -16 44 -13 47 11 11 -76 83 -114 94 -53 16 -120 15 -161 -3z m-68
-107 c-4 -13 -7 -31 -6 -40 1 -22 -5 -23 -23 -4 -12 12 -12 18 6 40 25 32 33
33 23 4z m269 -18 c25 -28 27 -36 27 -121 0 -81 -2 -92 -23 -112 -13 -12 -32
-34 -42 -50 -9 -15 -26 -27 -36 -27 -11 0 -19 -5 -19 -11 0 -20 -52 1 -84 34
-53 55 -67 85 -69 142 -1 45 2 56 23 74 32 26 41 26 76 -1 16 -12 23 -15 17
-7 -7 9 -10 18 -7 22 11 11 -39 29 -67 23 -36 -7 -37 7 -3 39 32 29 54 35 124
29 45 -3 60 -9 83 -34z m76 -17 c10 -36 5 -62 -9 -46 -4 4 -11 25 -14 46 -9
48 10 49 23 0z"/>
<path d="M405 490 c-3 -6 4 -10 17 -10 13 0 29 -5 36 -12 6 -6 14 -9 17 -6 10
9 -25 38 -45 38 -10 0 -22 -4 -25 -10z"/>
<path d="M260 450 c0 -5 9 -10 20 -10 11 0 20 5 20 10 0 6 -9 10 -20 10 -11 0
-20 -4 -20 -10z"/>
<path d="M414 443 c10 -11 37 -12 30 -2 -3 5 -12 9 -21 9 -9 0 -13 -3 -9 -7z"/>
<path d="M319 383 c-1 -5 -2 -15 -3 -23 -1 -10 -10 -14 -28 -12 -18 2 -28 -1
-28 -10 0 -21 67 -21 80 0 9 16 11 16 25 -2 11 -14 15 -16 15 -5 -1 29 -57 77
-61 52z"/>
<path d="M375 380 c-3 -5 -1 -10 4 -10 6 0 11 5 11 10 0 6 -2 10 -4 10 -3 0
-8 -4 -11 -10z"/>
<path d="M395 330 c-3 -5 -5 -10 -3 -11 36 -8 48 -7 48 6 0 17 -35 21 -45 5z"/>
<path d="M541 124 c0 -11 3 -14 6 -6 3 7 2 16 -1 19 -3 4 -6 -2 -5 -13z"/>
<path d="M436 95 c-9 -26 -7 -32 5 -12 6 10 9 21 6 23 -2 3 -7 -2 -11 -11z"/>
<path d="M552 80 c0 -14 2 -19 5 -12 2 6 2 18 0 25 -3 6 -5 1 -5 -13z"/>
<path d="M561 14 c0 -11 3 -14 6 -6 3 7 2 16 -1 19 -3 4 -6 -2 -5 -13z"/>
</g>
</svg>
